<svg id="Capa_1" enable-background="new 0 0 512 512" height="512" viewBox="0 0 512 512" width="512" xmlns="http://www.w3.org/2000/svg"><g><path d="m396.387 90.839h-280.774c-9.122 0-16.516 7.395-16.516 16.516v306.312h313.806v-306.312c0-9.122-7.394-16.516-16.516-16.516z" fill="#f2f2f6"/><path d="m106 404.645 9.613 16.516h280.774l9.613-16.516z" fill="#e1e1e6"/><path d="m350.698 261.326-16.698-11.132c-2.297-1.532-3.677-4.11-3.677-6.871v-23.326c0-2.428-2.556-4.009-4.728-2.922l-44.82 22.41 14.815-51.85c.722-2.527-1.682-4.828-4.175-3.997l-12.279 4.093c-3.822 1.274-8.005-.396-9.899-3.951l-10.352-19.424c-1.23-2.307-4.537-2.307-5.767 0l-10.352 19.424c-1.894 3.555-6.078 5.224-9.899 3.951l-12.279-4.093c-2.492-.831-4.897 1.471-4.175 3.997l14.815 51.85-44.82-22.41c-2.172-1.086-4.728.494-4.728 2.922v23.326c0 2.761-1.38 5.34-3.677 6.871l-16.698 11.132c-2.021 1.347-1.917 4.35.192 5.555l53.216 30.409-4.635 13.905c-1.782 5.347 2.198 10.869 7.835 10.869h29.833v41.29c0 4.56 3.694 8.258 8.258 8.258s8.258-3.698 8.258-8.258v-41.29h29.833c5.637 0 9.617-5.522 7.835-10.869l-4.635-13.905 53.216-30.409c2.104-1.205 2.208-4.208.187-5.555z" fill="#e5646e"/><path d="m115.613 90.839h-99.097l-8.032 16.516v287.462c0 9.121 7.395 16.516 16.516 16.516h80l10.613-6.689z" fill="#e5646e"/><path d="m0 107.355v297.29c0 9.121 7.395 16.516 16.516 16.516h99.097v-16.516h-49.548c-27.365 0-49.548-22.183-49.548-49.548v-264.258c-9.122 0-16.517 7.394-16.517 16.516z" fill="#db4655"/><path d="m413.667 414.667h81.817l16.516-10.022v-297.29c0-9.121-7.395-16.516-16.516-16.516h-99.097v313.807z" fill="#e5646e"/><path d="m512 404.645h-115.613v16.516h99.097c9.121 0 16.516-7.394 16.516-16.516z" fill="#db4655"/></g></svg>