<svg height="512" viewBox="0 0 64 64" width="512" xmlns="http://www.w3.org/2000/svg"><g id="Flat"><circle cx="52" cy="23" fill="#1f88e5" r="5"/><path d="m61 42v-7a5 5 0 0 0 -5-5h-8a5 5 0 0 0 -5 5v7a2 2 0 0 0 2 2h2l1 17h8l1-17h2a2 2 0 0 0 2-2z" fill="#1f88e5"/><path d="m53 46v15h-2v-15a1 1 0 0 1 2 0z" fill="#1665c0"/><path d="m47 36v8h-2v-8a1 1 0 0 1 2 0z" fill="#1665c0"/><path d="m59 36v8h-2v-8a1 1 0 0 1 2 0z" fill="#1665c0"/><circle cx="12" cy="23" fill="#1f88e5" r="5"/><path d="m21 42v-7a5 5 0 0 0 -5-5h-8a5 5 0 0 0 -5 5v7a2 2 0 0 0 2 2h2l1 17h8l1-17h2a2 2 0 0 0 2-2z" fill="#1f88e5"/><path d="m13 46v15h-2v-15a1 1 0 0 1 2 0z" fill="#1665c0"/><path d="m7 36v8h-2v-8a1 1 0 0 1 2 0z" fill="#1665c0"/><path d="m19 36v8h-2v-8a1 1 0 0 1 2 0z" fill="#1665c0"/><g fill="#ffcc80"><path d="m37.707 42.707-1.414-1.414 2.293-2.293-2.293-2.293 1.414-1.414 3 3a1 1 0 0 1 0 1.414z"/><path d="m26.293 42.707-3-3a1 1 0 0 1 0-1.414l3-3 1.414 1.414-2.293 2.293 2.293 2.293z"/><path d="m29 38h6v2h-6z"/><path d="m11 10v2.586l-1.293-1.293-1.414 1.414 3 3a1 1 0 0 0 1.414 0l3-3-1.414-1.414-1.293 1.293v-2.586a1 1 0 0 1 1-1h9v-2h-9a3 3 0 0 0 -3 3z"/><path d="m54.293 11.293-1.293 1.293v-2.586a3 3 0 0 0 -3-3h-9v2h9a1 1 0 0 1 1 1v2.586l-1.293-1.293-1.414 1.414 3 3a1 1 0 0 0 1.414 0l3-3z"/></g><circle cx="32" cy="8.5" fill="#870e4f" r="3"/><path d="m35.847 12.161a.99.99 0 0 0 -.923-.488l-.389-.673a3.485 3.485 0 0 0 .808-1.388h.773a.994.994 0 0 0 1.884-.449v-1.11a.993.993 0 0 0 -1.885-.444h-.77a3.439 3.439 0 0 0 -.314-.751 3.514 3.514 0 0 0 -.492-.647l.383-.663a1 1 0 0 0 .559-1.858l-.961-.555a.992.992 0 0 0 -1.328 1.408l-.387.669a3.482 3.482 0 0 0 -1.608.007l-.389-.674a.993.993 0 0 0 -1.327-1.411l-.962.556a.993.993 0 0 0 .557 1.854l.389.675a3.491 3.491 0 0 0 -.809 1.389h-.772a.993.993 0 0 0 -1.884.445v1.111a1 1 0 0 0 1 1 .982.982 0 0 0 .5-.133 1 1 0 0 0 .389-.422h.767a3.411 3.411 0 0 0 .314.75 3.448 3.448 0 0 0 .492.647l-.385.668a.989.989 0 0 0 -.923.488 1 1 0 0 0 .366 1.366l.962.555a1 1 0 0 0 1.366-.366.991.991 0 0 0 -.039-1.043l.385-.674a3.5 3.5 0 0 0 1.606 0l.389.674a.993.993 0 0 0 1.327 1.41l.962-.555a1 1 0 0 0 .369-1.368zm-3.1-2.254a1.5 1.5 0 1 1 .553-2.049 1.5 1.5 0 0 1 -.55 2.049z" fill="#ad1456"/></g></svg>